{"title":"Pitbull - International Love ft. Chris Brown 1080p ","uid":7076763,"size":140681265,"categoryP":"video","categoryS":"music_videos","magnet":"?xt=urn:btih:6570461053fa5022371a0a97221c3c2491a9af09&amp;dn=Pitbull+-+International+Love+ft.+Chris+Brown+1080p+&amp;tr=udp%3A%2F%2Ftracker.openbittorrent.com%3A80&amp;tr=udp%3A%2F%2Fopen.demonii.com%3A1337&amp;tr=udp%3A%2F%2Ftracker.coppersurfer.tk%3A6969&amp;tr=udp%3A%2F%2Fexodus.desync.com%3A6969","seeders":1,"leechers":0,"uploader":"pirate0610","files":-1,"time":1330873502,"description":"Pitbull - International Love ft. Chris Brown 1080p \n\n\n\n\n-=Video=-\n\n\nID                               : 1\nFormat                           : AVC\nFormat/Info                      : Advanced Video Codec\nFormat profile                   : &lt;a class=&quot;__cf_email__&quot; href=&quot;/cdn-cgi/l/email-protection&quot; data-cfemail=&quot;d193b0a2b4bdb8bfb4919de4ffe0&quot;&gt;[email&amp;#160;protected]&lt;/a&gt;&lt;script cf-hash='f9e31' type=&quot;text/javascript&quot;&gt;\n/* &lt;![CDATA[ */!function(){try{var t=&quot;currentScript&quot;in document?document.currentScript:function(){for(var t=document.getElementsByTagName(&quot;script&quot;),e=t.length;e--;)if(t[e].getAttribute(&quot;cf-hash&quot;))return t[e]}();if(t&amp;&amp;t.previousSibling){var e,r,n,i,c=t.previousSibling,a=c.getAttribute(&quot;data-cfemail&quot;);if(a){for(e=&quot;&quot;,r=parseInt(a.substr(0,2),16),n=2;a.length-n;n+=2)i=parseInt(a.substr(n,2),16)^r,e+=String.fromCharCode(i);e=document.createTextNode(e),c.parentNode.replaceChild(e,c)}}}catch(u){}}();/* ]]&gt; */&lt;/script&gt;\nFormat settings, CABAC           : No\nFormat settings, ReFrames        : 1 frame\nCodec ID                         : avc1\nCodec ID/Info                    : Advanced Video Coding\nDuration                         : 4mn 8s\nBit rate mode                    : Variable\nBit rate                         : 4 286 Kbps\nWidth                            : 1 920 pixels\nHeight                           : 1 080 pixels\nDisplay aspect ratio             : 16:9\nFrame rate mode                  : Constant\nFrame rate                       : 23.976 fps\nColor space                      : YUV\nChroma subsampling               : 4:2:0\nBit depth                        : 8 bits\nScan type                        : Progressive\nBits/(Pixel*Frame)               : 0.086\nStream size                      : 127 MiB (98%)\n\n\n\n-=Audio=-\n\n\nID                               : 2\nFormat                           : AAC\nFormat/Info                      : Advanced Audio Codec\nFormat version                   : Version 4\nFormat profile                   : LC\nFormat settings, SBR             : No\nCodec ID                         : 40\nDuration                         : 4mn 8s\nBit rate mode                    : Variable\nBit rate                         : 63.9 Kbps\nChannel(s)                       : 2 channels\nChannel positions                : Front: L R\nSampling rate                    : 44.1 KHz\nStream size                      : 1.89 MiB (1%)\n\n\n\n-=Screens=-\n &lt;a href=&quot;\nhttp://www.shotpix.com/images/86116866863767991949.png&quot; rel=&quot;nofollow&quot; target=&quot;_NEW&quot;&gt;\nhttp://www.shotpix.com/images/86116866863767991949.png&lt;/a&gt;\n &lt;a href=&quot;\nhttp://www.shotpix.com/images/37543529367875259735.png&quot; rel=&quot;nofollow&quot; target=&quot;_NEW&quot;&gt;\nhttp://www.shotpix.com/images/37543529367875259735.png&lt;/a&gt;\n &lt;a href=&quot;\nhttp://www.shotpix.com/images/79374815381872496161.png&quot; rel=&quot;nofollow&quot; target=&quot;_NEW&quot;&gt;\nhttp://www.shotpix.com/images/79374815381872496161.png&lt;/a&gt;\n\n\n\n-=Thump Screen=-\n &lt;a href=&quot;\nhttp://www.shotpix.com/images/34426556308702864599.jpeg&quot; rel=&quot;nofollow&quot; target=&quot;_NEW&quot;&gt;\nhttp://www.shotpix.com/images/34426556308702864599.jpeg&lt;/a&gt;","torrent":{"xt":"urn:btih:6570461053fa5022371a0a97221c3c2491a9af09","amp;dn":"Pitbull+-+International+Love+ft.+Chris+Brown+1080p+","amp;tr":["udp%3A%2F%2Ftracker.openbittorrent.com%3A80","udp%3A%2F%2Fopen.demonii.com%3A1337","udp%3A%2F%2Ftracker.coppersurfer.tk%3A6969","udp%3A%2F%2Fexodus.desync.com%3A6969"],"infoHash":"6570461053fa5022371a0a97221c3c2491a9af09","infoHashBuffer":{"type":"Buffer","data":[101,112,70,16,83,250,80,34,55,26,10,151,34,28,60,36,145,169,175,9]},"announce":[],"urlList":[]}}